<mxfile host="app.diagrams.net" agent="Mozilla/5.0 (Windows NT 10.0; Win64; x64) AppleWebKit/537.36 (KHTML, like Gecko) Chrome/128.0.0.0 Safari/537.36" version="24.7.14">
  <diagram name="Página-1" id="ko6BvsAc9gP00TvDJfB-">
    <mxGraphModel dx="880" dy="468" grid="1" gridSize="10" guides="1" tooltips="1" connect="1" arrows="1" fold="1" page="1" pageScale="1" pageWidth="827" pageHeight="1169" math="0" shadow="0">
      <root>
        <mxCell id="0" />
        <mxCell id="1" parent="0" />
        <mxCell id="umacOq1Su-b-Jq-_Dv62-22" style="edgeStyle=orthogonalEdgeStyle;rounded=0;orthogonalLoop=1;jettySize=auto;html=1;entryX=0.5;entryY=0;entryDx=0;entryDy=0;" edge="1" parent="1" source="umacOq1Su-b-Jq-_Dv62-3">
          <mxGeometry relative="1" as="geometry">
            <mxPoint x="400" y="200" as="targetPoint" />
          </mxGeometry>
        </mxCell>
        <mxCell id="umacOq1Su-b-Jq-_Dv62-3" value="Acordar 7:30 atrasado&amp;nbsp;" style="rounded=0;whiteSpace=wrap;html=1;fillColor=#f5f5f5;strokeColor=#666666;fontColor=#333333;" vertex="1" parent="1">
          <mxGeometry x="320" y="80" width="160" height="80" as="geometry" />
        </mxCell>
        <mxCell id="umacOq1Su-b-Jq-_Dv62-25" style="edgeStyle=orthogonalEdgeStyle;rounded=0;orthogonalLoop=1;jettySize=auto;html=1;entryX=0;entryY=0.5;entryDx=0;entryDy=0;" edge="1" parent="1" source="umacOq1Su-b-Jq-_Dv62-23">
          <mxGeometry relative="1" as="geometry">
            <mxPoint x="600" y="240" as="targetPoint" />
          </mxGeometry>
        </mxCell>
        <mxCell id="umacOq1Su-b-Jq-_Dv62-26" value="False" style="edgeLabel;html=1;align=center;verticalAlign=middle;resizable=0;points=[];" vertex="1" connectable="0" parent="umacOq1Su-b-Jq-_Dv62-25">
          <mxGeometry x="-0.1077" y="-1" relative="1" as="geometry">
            <mxPoint as="offset" />
          </mxGeometry>
        </mxCell>
        <mxCell id="umacOq1Su-b-Jq-_Dv62-28" style="edgeStyle=orthogonalEdgeStyle;rounded=0;orthogonalLoop=1;jettySize=auto;html=1;entryX=1;entryY=0.5;entryDx=0;entryDy=0;" edge="1" parent="1" source="umacOq1Su-b-Jq-_Dv62-23" target="umacOq1Su-b-Jq-_Dv62-27">
          <mxGeometry relative="1" as="geometry" />
        </mxCell>
        <mxCell id="umacOq1Su-b-Jq-_Dv62-29" value="True" style="edgeLabel;html=1;align=center;verticalAlign=middle;resizable=0;points=[];" vertex="1" connectable="0" parent="umacOq1Su-b-Jq-_Dv62-28">
          <mxGeometry x="0.1333" y="-1" relative="1" as="geometry">
            <mxPoint as="offset" />
          </mxGeometry>
        </mxCell>
        <mxCell id="umacOq1Su-b-Jq-_Dv62-23" value="Levantou?" style="rhombus;whiteSpace=wrap;html=1;fillColor=#fff2cc;strokeColor=#d6b656;" vertex="1" parent="1">
          <mxGeometry x="330" y="200" width="140" height="80" as="geometry" />
        </mxCell>
        <mxCell id="umacOq1Su-b-Jq-_Dv62-35" style="edgeStyle=orthogonalEdgeStyle;rounded=0;orthogonalLoop=1;jettySize=auto;html=1;entryX=0.5;entryY=0;entryDx=0;entryDy=0;" edge="1" parent="1" source="umacOq1Su-b-Jq-_Dv62-27" target="umacOq1Su-b-Jq-_Dv62-34">
          <mxGeometry relative="1" as="geometry" />
        </mxCell>
        <mxCell id="umacOq1Su-b-Jq-_Dv62-27" value="Tomar banho correndo" style="rounded=0;whiteSpace=wrap;html=1;" vertex="1" parent="1">
          <mxGeometry x="120" y="210" width="120" height="60" as="geometry" />
        </mxCell>
        <mxCell id="umacOq1Su-b-Jq-_Dv62-33" style="edgeStyle=orthogonalEdgeStyle;rounded=0;orthogonalLoop=1;jettySize=auto;html=1;" edge="1" parent="1" source="umacOq1Su-b-Jq-_Dv62-32" target="umacOq1Su-b-Jq-_Dv62-3">
          <mxGeometry relative="1" as="geometry" />
        </mxCell>
        <mxCell id="umacOq1Su-b-Jq-_Dv62-32" value="Início" style="rounded=1;whiteSpace=wrap;html=1;arcSize=50;fillColor=#dae8fc;strokeColor=#6c8ebf;" vertex="1" parent="1">
          <mxGeometry x="330" width="140" height="40" as="geometry" />
        </mxCell>
        <mxCell id="umacOq1Su-b-Jq-_Dv62-39" style="edgeStyle=orthogonalEdgeStyle;rounded=0;orthogonalLoop=1;jettySize=auto;html=1;entryX=0;entryY=0.5;entryDx=0;entryDy=0;" edge="1" parent="1" source="umacOq1Su-b-Jq-_Dv62-34" target="umacOq1Su-b-Jq-_Dv62-37">
          <mxGeometry relative="1" as="geometry" />
        </mxCell>
        <mxCell id="umacOq1Su-b-Jq-_Dv62-34" value="Se arrumar pra ir pro curso" style="rounded=0;whiteSpace=wrap;html=1;" vertex="1" parent="1">
          <mxGeometry x="120" y="320" width="120" height="80" as="geometry" />
        </mxCell>
        <mxCell id="umacOq1Su-b-Jq-_Dv62-41" style="edgeStyle=orthogonalEdgeStyle;rounded=0;orthogonalLoop=1;jettySize=auto;html=1;entryX=0;entryY=0.5;entryDx=0;entryDy=0;" edge="1" parent="1" source="umacOq1Su-b-Jq-_Dv62-37" target="umacOq1Su-b-Jq-_Dv62-40">
          <mxGeometry relative="1" as="geometry" />
        </mxCell>
        <mxCell id="umacOq1Su-b-Jq-_Dv62-42" value="False" style="edgeLabel;html=1;align=center;verticalAlign=middle;resizable=0;points=[];" vertex="1" connectable="0" parent="umacOq1Su-b-Jq-_Dv62-41">
          <mxGeometry x="0.1286" y="-3" relative="1" as="geometry">
            <mxPoint as="offset" />
          </mxGeometry>
        </mxCell>
        <mxCell id="umacOq1Su-b-Jq-_Dv62-44" style="edgeStyle=orthogonalEdgeStyle;rounded=0;orthogonalLoop=1;jettySize=auto;html=1;entryX=0.5;entryY=0;entryDx=0;entryDy=0;" edge="1" parent="1" source="umacOq1Su-b-Jq-_Dv62-37" target="umacOq1Su-b-Jq-_Dv62-43">
          <mxGeometry relative="1" as="geometry" />
        </mxCell>
        <mxCell id="umacOq1Su-b-Jq-_Dv62-45" value="True" style="edgeLabel;html=1;align=center;verticalAlign=middle;resizable=0;points=[];" vertex="1" connectable="0" parent="umacOq1Su-b-Jq-_Dv62-44">
          <mxGeometry x="-0.0667" y="-1" relative="1" as="geometry">
            <mxPoint as="offset" />
          </mxGeometry>
        </mxCell>
        <mxCell id="umacOq1Su-b-Jq-_Dv62-37" value="Se arrumou?" style="rhombus;whiteSpace=wrap;html=1;fillColor=#fff2cc;strokeColor=#d6b656;" vertex="1" parent="1">
          <mxGeometry x="340" y="320" width="120" height="80" as="geometry" />
        </mxCell>
        <mxCell id="umacOq1Su-b-Jq-_Dv62-54" style="edgeStyle=orthogonalEdgeStyle;rounded=0;orthogonalLoop=1;jettySize=auto;html=1;entryX=0.5;entryY=0;entryDx=0;entryDy=0;" edge="1" parent="1" source="umacOq1Su-b-Jq-_Dv62-40" target="umacOq1Su-b-Jq-_Dv62-50">
          <mxGeometry relative="1" as="geometry" />
        </mxCell>
        <mxCell id="umacOq1Su-b-Jq-_Dv62-40" value="Vai logo que tá atrasado" style="rounded=0;whiteSpace=wrap;html=1;" vertex="1" parent="1">
          <mxGeometry x="600" y="330" width="120" height="60" as="geometry" />
        </mxCell>
        <mxCell id="umacOq1Su-b-Jq-_Dv62-47" style="edgeStyle=orthogonalEdgeStyle;rounded=0;orthogonalLoop=1;jettySize=auto;html=1;entryX=0.5;entryY=0;entryDx=0;entryDy=0;" edge="1" parent="1" source="umacOq1Su-b-Jq-_Dv62-43" target="umacOq1Su-b-Jq-_Dv62-46">
          <mxGeometry relative="1" as="geometry" />
        </mxCell>
        <mxCell id="umacOq1Su-b-Jq-_Dv62-43" value="Pegar bolacha" style="rounded=0;whiteSpace=wrap;html=1;" vertex="1" parent="1">
          <mxGeometry x="340" y="460" width="120" height="60" as="geometry" />
        </mxCell>
        <mxCell id="umacOq1Su-b-Jq-_Dv62-62" style="edgeStyle=orthogonalEdgeStyle;rounded=0;orthogonalLoop=1;jettySize=auto;html=1;entryX=0.5;entryY=0;entryDx=0;entryDy=0;" edge="1" parent="1" source="umacOq1Su-b-Jq-_Dv62-46" target="umacOq1Su-b-Jq-_Dv62-61">
          <mxGeometry relative="1" as="geometry" />
        </mxCell>
        <mxCell id="umacOq1Su-b-Jq-_Dv62-46" value="Entrar no carro" style="rounded=0;whiteSpace=wrap;html=1;" vertex="1" parent="1">
          <mxGeometry x="340" y="570" width="120" height="60" as="geometry" />
        </mxCell>
        <mxCell id="umacOq1Su-b-Jq-_Dv62-51" style="edgeStyle=orthogonalEdgeStyle;rounded=0;orthogonalLoop=1;jettySize=auto;html=1;entryX=1;entryY=0.5;entryDx=0;entryDy=0;" edge="1" parent="1" source="umacOq1Su-b-Jq-_Dv62-50" target="umacOq1Su-b-Jq-_Dv62-43">
          <mxGeometry relative="1" as="geometry" />
        </mxCell>
        <mxCell id="umacOq1Su-b-Jq-_Dv62-53" value="True" style="edgeLabel;html=1;align=center;verticalAlign=middle;resizable=0;points=[];" vertex="1" connectable="0" parent="umacOq1Su-b-Jq-_Dv62-51">
          <mxGeometry x="0.0143" y="-2" relative="1" as="geometry">
            <mxPoint as="offset" />
          </mxGeometry>
        </mxCell>
        <mxCell id="umacOq1Su-b-Jq-_Dv62-58" style="edgeStyle=orthogonalEdgeStyle;rounded=0;orthogonalLoop=1;jettySize=auto;html=1;entryX=0.5;entryY=0;entryDx=0;entryDy=0;" edge="1" parent="1" source="umacOq1Su-b-Jq-_Dv62-50" target="umacOq1Su-b-Jq-_Dv62-57">
          <mxGeometry relative="1" as="geometry" />
        </mxCell>
        <mxCell id="umacOq1Su-b-Jq-_Dv62-59" value="False" style="edgeLabel;html=1;align=center;verticalAlign=middle;resizable=0;points=[];" vertex="1" connectable="0" parent="umacOq1Su-b-Jq-_Dv62-58">
          <mxGeometry x="-0.0545" relative="1" as="geometry">
            <mxPoint as="offset" />
          </mxGeometry>
        </mxCell>
        <mxCell id="umacOq1Su-b-Jq-_Dv62-50" value="Se arrumou?" style="rhombus;whiteSpace=wrap;html=1;fillColor=#fff2cc;strokeColor=#d6b656;" vertex="1" parent="1">
          <mxGeometry x="600" y="450" width="120" height="80" as="geometry" />
        </mxCell>
        <mxCell id="umacOq1Su-b-Jq-_Dv62-57" value="Tarde demais, faltou." style="rounded=1;whiteSpace=wrap;html=1;arcSize=50;fillColor=#f8cecc;strokeColor=#b85450;" vertex="1" parent="1">
          <mxGeometry x="600" y="585" width="120" height="60" as="geometry" />
        </mxCell>
        <mxCell id="umacOq1Su-b-Jq-_Dv62-60" value="Faltou primeira aula" style="rounded=1;whiteSpace=wrap;html=1;arcSize=38;fillColor=#f8cecc;strokeColor=#b85450;" vertex="1" parent="1">
          <mxGeometry x="600" y="210" width="120" height="60" as="geometry" />
        </mxCell>
        <mxCell id="umacOq1Su-b-Jq-_Dv62-66" style="edgeStyle=orthogonalEdgeStyle;rounded=0;orthogonalLoop=1;jettySize=auto;html=1;entryX=0.5;entryY=0;entryDx=0;entryDy=0;" edge="1" parent="1" source="umacOq1Su-b-Jq-_Dv62-61" target="umacOq1Su-b-Jq-_Dv62-65">
          <mxGeometry relative="1" as="geometry" />
        </mxCell>
        <mxCell id="umacOq1Su-b-Jq-_Dv62-61" value="Comer bolacha no caminho" style="rounded=0;whiteSpace=wrap;html=1;" vertex="1" parent="1">
          <mxGeometry x="340" y="680" width="120" height="60" as="geometry" />
        </mxCell>
        <mxCell id="umacOq1Su-b-Jq-_Dv62-68" style="edgeStyle=orthogonalEdgeStyle;rounded=0;orthogonalLoop=1;jettySize=auto;html=1;entryX=0.5;entryY=0;entryDx=0;entryDy=0;" edge="1" parent="1" source="umacOq1Su-b-Jq-_Dv62-65" target="umacOq1Su-b-Jq-_Dv62-67">
          <mxGeometry relative="1" as="geometry" />
        </mxCell>
        <mxCell id="umacOq1Su-b-Jq-_Dv62-65" value="Ir até o SENAI" style="rounded=0;whiteSpace=wrap;html=1;" vertex="1" parent="1">
          <mxGeometry x="340" y="790" width="120" height="60" as="geometry" />
        </mxCell>
        <mxCell id="umacOq1Su-b-Jq-_Dv62-67" value="Fim, chegou." style="rounded=1;whiteSpace=wrap;html=1;arcSize=50;fillColor=#d5e8d4;strokeColor=#82b366;" vertex="1" parent="1">
          <mxGeometry x="340" y="890" width="120" height="60" as="geometry" />
        </mxCell>
      </root>
    </mxGraphModel>
  </diagram>
</mxfile>
